<svg width="720" height="776" viewBox="0 0 720 776" fill="none" xmlns="http://www.w3.org/2000/svg">
<path opacity="0.3" d="M0.104272 462.842C0.245029 463.108 0.50569 463.26 0.771564 463.26C0.901894 463.26 1.03222 463.227 1.15734 463.147L55.2393 429.325C57.0066 429.907 59.1336 429.919 60.9165 429.359L114.159 462.667C112.543 464.001 112.486 465.843 113.992 467.211L61.026 500.315C60.6558 500.547 60.5307 501.056 60.7444 501.457C60.8852 501.722 61.1459 501.875 61.4117 501.875C61.5421 501.875 61.6724 501.841 61.7975 501.762L115.525 468.183C117.715 469.149 120.691 469.121 122.839 468.098L178.031 502.632C177.135 503.909 177.39 505.435 178.798 506.571L124.387 540.665C124.017 540.896 123.892 541.405 124.106 541.806C124.247 542.072 124.507 542.224 124.773 542.224C124.904 542.224 125.039 542.19 125.159 542.111L180.419 507.492C182.166 508.176 184.35 508.261 186.206 507.747L238.046 540.179C237.78 540.297 237.525 540.427 237.29 540.574C235.054 541.976 234.897 544.197 236.811 545.717L184.058 578.657C183.688 578.889 183.563 579.398 183.776 579.799C183.917 580.065 184.178 580.217 184.444 580.217C184.574 580.217 184.704 580.183 184.83 580.104L238.447 546.627C240.83 547.536 244.005 547.35 246.059 546.061C246.299 545.915 246.502 545.751 246.695 545.587L299.745 578.776C299.572 578.861 299.4 578.957 299.244 579.059C297.086 580.409 296.867 582.523 298.566 584.037L245.006 617.475C244.636 617.707 244.51 618.216 244.724 618.611C244.865 618.877 245.126 619.029 245.391 619.029C245.522 619.029 245.652 618.996 245.777 618.916L300.115 584.992C302.523 586.027 305.87 585.88 308.007 584.54C308.169 584.439 308.315 584.331 308.456 584.224L362.767 618.204C362.392 618.351 362.032 618.526 361.704 618.736C359.629 620.035 359.342 622.041 360.843 623.539L307.184 657.062C306.814 657.294 306.689 657.802 306.902 658.203C307.043 658.469 307.304 658.622 307.57 658.622C307.7 658.622 307.83 658.588 307.955 658.509L362.314 624.551C364.738 625.72 368.251 625.613 370.472 624.223C370.801 624.019 371.082 623.793 371.322 623.556L425.294 657.322C425.242 657.356 425.185 657.384 425.128 657.418C423.188 658.633 422.813 660.464 423.991 661.922L368.898 696.36C368.528 696.592 368.403 697.1 368.616 697.502C368.757 697.767 369.018 697.92 369.284 697.92C369.414 697.92 369.544 697.886 369.669 697.807L425.326 663.013C427.75 664.408 431.55 664.374 433.896 662.905C433.948 662.871 433.995 662.837 434.048 662.803L487.546 696.275C487.384 696.354 487.228 696.445 487.082 696.541C485.293 697.66 484.835 699.304 485.695 700.695L430.112 735.347C429.741 735.579 429.616 736.088 429.83 736.489C429.971 736.755 430.231 736.907 430.497 736.907C430.628 736.907 430.758 736.873 430.883 736.794L486.878 701.887C486.946 701.932 487.014 701.983 487.087 702.028C489.495 703.537 493.442 703.537 495.85 702.028C496.001 701.932 496.142 701.836 496.272 701.734L547.967 734.076C546.914 735.302 546.992 736.817 548.201 738.004L490.684 773.911C490.314 774.143 490.189 774.651 490.402 775.053C490.543 775.318 490.804 775.471 491.07 775.471C491.2 775.471 491.33 775.437 491.455 775.358L549.687 739.004C551.632 739.925 554.259 740.038 556.365 739.326L610.265 773.046C610.385 773.12 610.52 773.159 610.651 773.159C610.916 773.159 611.177 773.013 611.318 772.741C611.532 772.34 611.406 771.831 611.036 771.6L558.075 738.467C560.015 737.082 560.114 735.031 558.367 733.579L611.912 700.146C613.33 700.74 615.056 700.932 616.672 700.717L670.853 734.602C670.973 734.675 671.108 734.715 671.239 734.715C671.504 734.715 671.765 734.568 671.906 734.296C672.12 733.895 671.995 733.387 671.624 733.155L618.841 700.146C619.164 700.011 619.471 699.852 619.758 699.677C621.88 698.349 622.13 696.281 620.524 694.778L671.385 663.024C673.22 663.685 675.482 663.713 677.349 663.109L732.802 697.812C732.921 697.886 733.057 697.925 733.187 697.925C733.453 697.925 733.714 697.779 733.855 697.507C734.068 697.106 733.943 696.597 733.573 696.366L679.079 662.267C680.893 661.006 681.154 659.17 679.851 657.74L734.579 623.573C736.299 624.347 738.526 624.5 740.444 624.036L795.084 658.232C795.204 658.305 795.339 658.345 795.47 658.345C795.735 658.345 795.996 658.198 796.137 657.926C796.351 657.525 796.226 657.017 795.855 656.785L742.347 623.296C742.425 623.251 742.503 623.211 742.576 623.166C744.74 621.81 744.954 619.685 743.228 618.17L796.189 585.105C798.259 586.015 801.032 586.049 803.143 585.19L857.116 618.916C857.236 618.99 857.371 619.029 857.502 619.029C857.768 619.029 858.028 618.877 858.169 618.611C858.383 618.21 858.252 617.701 857.888 617.47L804.734 584.252C806.324 582.913 806.36 581.071 804.838 579.709L859.024 545.881C860.911 546.858 863.523 547.022 865.66 546.378L919.586 580.104C919.706 580.178 919.841 580.217 919.972 580.217C920.238 580.217 920.498 580.07 920.639 579.799C920.853 579.398 920.728 578.889 920.358 578.657L867.449 545.564C869.617 544.14 869.727 541.925 867.761 540.427L920.566 507.464C922.547 508.436 925.274 508.543 927.427 507.786L980.768 541.151C980.888 541.224 981.024 541.264 981.154 541.264C981.42 541.264 981.681 541.117 981.821 540.845C982.035 540.444 981.91 539.936 981.54 539.704L929.116 506.91C931.008 505.514 931.06 503.457 929.277 502.022L982.989 468.488C984.381 469.008 986.028 469.155 987.572 468.929L1042.95 503.587C1043.07 503.661 1043.21 503.7 1043.34 503.7C1043.6 503.7 1043.86 503.553 1044 503.282C1044.22 502.881 1044.09 502.372 1043.72 502.141L989.704 468.335C989.996 468.205 990.277 468.064 990.543 467.9C992.576 466.629 992.889 464.668 991.487 463.181L1044.61 430.015C1046.57 430.732 1049.04 430.721 1050.98 429.981L1106.35 464.645C1106.47 464.719 1106.61 464.758 1106.74 464.758C1107.01 464.758 1107.27 464.611 1107.41 464.34C1107.62 463.939 1107.5 463.43 1107.13 463.198L1052.62 429.077C1054.2 427.816 1054.36 426.076 1053.1 424.72L1106.65 391.282C1108.62 392.214 1111.29 392.316 1113.41 391.587L1168.08 425.708C1168.2 425.782 1168.34 425.821 1168.47 425.821C1168.74 425.821 1169 425.669 1169.14 425.403C1169.35 425.002 1169.22 424.493 1168.86 424.262L1115.11 390.716C1117 389.332 1117.08 387.297 1115.34 385.856L1168.76 352.509C1170.74 353.707 1173.71 353.905 1176.03 353.114L1229.81 386.766C1229.93 386.84 1230.06 386.879 1230.19 386.879C1230.46 386.879 1230.72 386.732 1230.86 386.461C1231.08 386.06 1230.95 385.551 1230.58 385.32L1177.74 352.249C1179.81 350.751 1179.74 348.48 1177.53 347.033L1238.68 308.854C1239.05 308.622 1239.18 308.113 1238.96 307.712C1238.75 307.311 1238.28 307.175 1237.91 307.407L1175.73 346.225C1173.56 345.575 1170.89 345.761 1169 346.784L1117 314.245C1117.66 312.911 1117.16 311.397 1115.48 310.345C1115.38 310.289 1115.28 310.232 1115.19 310.182L1177.18 271.533C1177.55 271.302 1177.68 270.793 1177.46 270.392C1177.25 269.99 1176.78 269.855 1176.42 270.086L1113.26 309.464C1111.97 309.164 1110.55 309.142 1109.25 309.396L1054.91 275.393C1055.78 274.003 1055.32 272.358 1053.53 271.239C1053.28 271.081 1053.01 270.945 1052.73 270.821L1113.47 232.857C1113.84 232.625 1113.96 232.116 1113.75 231.715C1113.53 231.314 1113.06 231.178 1112.69 231.41L1050.61 270.222C1049.38 270.036 1048.08 270.087 1046.89 270.375L991.836 235.919C992.138 234.733 991.565 233.473 990.11 232.563C990.063 232.534 990.006 232.506 989.959 232.478L1050.52 194.649C1050.89 194.417 1051.01 193.909 1050.8 193.507C1050.58 193.106 1050.11 192.971 1049.74 193.202L988.025 231.715C986.962 231.444 985.804 231.365 984.683 231.478L929.142 196.717C929.72 195.48 929.293 194.101 927.875 193.078L987.035 156.142C987.405 155.91 987.53 155.402 987.316 155C987.102 154.599 986.633 154.464 986.263 154.695L926.165 192.213C924.711 191.722 923.006 191.614 921.442 191.897L867.276 157.995C867.683 156.871 867.287 155.65 866.083 154.707L925.837 117.397C926.207 117.166 926.332 116.657 926.118 116.256C925.904 115.855 925.435 115.719 925.065 115.951L864.435 153.808C863.049 153.288 861.401 153.135 859.863 153.356L807.71 120.715C810.056 119.2 810.041 116.765 807.653 115.267C807.439 115.131 807.21 115.013 806.975 114.905L864.373 78.9469C864.743 78.7152 864.868 78.2066 864.654 77.8053C864.44 77.4041 863.971 77.2685 863.601 77.5002L804.906 114.272C802.857 113.922 800.573 114.244 798.952 115.227L743.973 80.8174C745.402 79.3255 745.099 77.3589 743.051 76.0761C743.014 76.0535 742.978 76.0365 742.946 76.0139L801.35 39.513C801.72 39.2813 801.845 38.7727 801.632 38.3715C801.418 37.9702 800.949 37.8346 800.579 38.0663L741.085 75.251C739.276 74.7763 737.181 74.8611 735.476 75.4997L682.364 42.2595C684.423 40.7902 684.407 38.5636 682.312 37.1113L739.156 1.55973C739.526 1.32803 739.652 0.819428 739.438 0.418195C739.224 0.0169615 738.755 -0.118667 738.385 0.113031L680.575 36.2692C678.355 35.5459 675.571 35.7267 673.621 36.7948L632.875 11.2911C632.504 11.0594 632.035 11.195 631.821 11.5962C631.608 11.9974 631.733 12.5061 632.103 12.7378L672.271 37.8798C671.301 39.01 671.285 40.3776 672.229 41.5135L618.637 75.0306C616.224 73.9682 612.845 74.1095 610.692 75.4545C610.557 75.5392 610.426 75.6296 610.306 75.7257L568.987 49.9394C568.622 49.7077 568.147 49.849 567.933 50.2446C567.72 50.6458 567.85 51.1544 568.215 51.3861L609.206 76.969C608.597 78.1162 608.862 79.4103 610.004 80.4275L556.61 113.82C554.374 112.537 550.975 112.47 548.613 113.617L506.996 87.5649C506.626 87.3332 506.157 87.4689 505.943 87.8701C505.729 88.2713 505.854 88.7799 506.225 89.0116L547.159 114.634C545.73 116.081 545.965 117.996 547.857 119.291L495.053 152.316C492.628 150.903 488.807 150.932 486.451 152.406C486.174 152.582 485.935 152.768 485.721 152.96L443.15 126.315C442.785 126.083 442.31 126.219 442.097 126.62C441.883 127.021 442.008 127.53 442.378 127.762L484.793 154.305C484.371 155.515 484.871 156.826 486.3 157.786L432.749 191.275C430.398 190.185 427.077 190.275 424.883 191.535L380.961 164.065C380.591 163.833 380.122 163.969 379.908 164.37C379.694 164.771 379.82 165.28 380.19 165.512L423.548 192.632C422.5 193.92 422.683 195.508 424.085 196.695L371.27 229.726C368.851 228.635 365.442 228.765 363.268 230.127C363.226 230.15 363.195 230.178 363.158 230.206L318.262 202.126C317.892 201.894 317.423 202.029 317.209 202.431C316.995 202.832 317.125 203.34 317.49 203.572L361.938 231.37C361.125 232.597 361.354 234.026 362.621 235.134L308.498 268.985C306.152 267.719 302.622 267.736 300.308 269.035L254.838 240.621C254.473 240.39 253.999 240.525 253.785 240.926C253.571 241.328 253.701 241.836 254.066 242.068L298.952 270.12C297.805 271.499 298.076 273.229 299.755 274.449L246.945 307.48C244.516 306.158 240.804 306.214 238.494 307.661C238.401 307.718 238.317 307.78 238.234 307.842L191.888 278.84C191.518 278.608 191.049 278.744 190.835 279.145C190.621 279.547 190.747 280.055 191.117 280.287L237.082 309.051C236.31 310.351 236.685 311.86 238.208 312.951L183.724 347.027C183.667 346.988 183.615 346.948 183.552 346.909C181.196 345.434 177.385 345.405 174.961 346.812L128.162 317.528C127.797 317.296 127.322 317.432 127.109 317.833C126.895 318.234 127.02 318.743 127.39 318.975L173.637 347.914C172.474 349.367 172.855 351.192 174.784 352.401C174.841 352.441 174.909 352.469 174.971 352.509L124.382 384.15C121.969 382.68 118.069 382.692 115.681 384.184C115.316 384.415 115.009 384.67 114.753 384.935L66.6667 354.865C66.2965 354.634 65.8273 354.769 65.6136 355.171C65.3998 355.572 65.525 356.08 65.8951 356.312L113.94 386.359C113.669 387.518 114.222 388.738 115.614 389.631L62.2302 423.019C59.8582 421.696 56.2298 421.707 53.8943 423.069L4.87958 392.372C4.51466 392.14 4.04025 392.276 3.82651 392.677C3.61277 393.079 3.73789 393.587 4.10803 393.819L52.5962 424.154C51.4858 425.545 51.7934 427.268 53.5137 428.472L0.385786 461.701C0.0156471 461.932 -0.10947 462.441 0.104272 462.842ZM179.267 501.479L124.309 467.098C125.644 465.781 125.592 464.069 124.153 462.786L177.719 429.308C179.376 429.964 181.425 430.082 183.224 429.659L239.48 464.837C239.323 465.837 239.782 466.872 240.856 467.685L187.473 501.129C185.048 499.959 181.524 500.061 179.303 501.451C179.293 501.462 179.283 501.468 179.267 501.479ZM495.621 696.405L549.088 663.075C551.267 664.397 554.64 664.51 557.033 663.425L609.295 696.111C608.941 697.163 609.285 698.281 610.322 699.186L556.741 732.635C554.452 731.719 551.397 731.838 549.307 732.985L497.326 700.463C498.019 699.118 497.524 697.581 495.824 696.518C495.762 696.484 495.689 696.445 495.621 696.405ZM1167.4 351.401L1113.68 384.941C1111.41 384.031 1108.39 384.144 1106.3 385.269L1054.26 352.791C1054.94 351.492 1054.5 350.011 1052.95 348.949L1106.37 315.641C1106.46 315.708 1106.55 315.771 1106.65 315.833C1109.06 317.342 1113.01 317.342 1115.42 315.833C1115.58 315.731 1115.73 315.618 1115.87 315.505L1167.56 347.852C1166.6 348.954 1166.55 350.282 1167.4 351.401ZM797.31 119.048L743.171 152.966C740.892 152.327 738.109 152.587 736.247 153.757C736.096 153.853 735.95 153.955 735.82 154.057L680.847 119.754C682.676 118.336 682.671 116.279 680.826 114.866L734.188 81.5125C734.225 81.5351 734.251 81.5577 734.287 81.5803C736.534 82.9875 740.116 83.0835 742.545 81.8629L797.675 116.369C797.049 117.211 796.924 118.166 797.31 119.048ZM680.664 43.1354L733.839 76.4152C732.4 77.5397 732.108 79.0656 732.974 80.3484L679.168 113.979C676.973 113.176 674.142 113.278 672.125 114.306L619.044 81.1791C619.185 81.1056 619.325 81.0265 619.461 80.9417C621.604 79.6024 621.838 77.5058 620.175 75.997L673.579 42.5985C675.545 43.7118 678.407 43.8927 680.664 43.1354ZM184.939 348.203L239.933 313.81C241.518 314.346 243.4 314.42 245.068 314.036L298.561 347.513C297.305 348.807 297.372 350.474 298.759 351.729L244.187 385.834C242.102 384.704 239.078 384.596 236.805 385.5L183.73 352.283C185.393 351.158 185.799 349.559 184.939 348.203ZM186.268 423.957L237.149 392.157C239.266 392.886 241.925 392.785 243.885 391.852L299.077 426.392C298.128 427.754 298.483 429.387 300.141 430.54L249.578 462.221C247.148 460.972 243.525 461.057 241.257 462.475C240.83 462.746 240.481 463.046 240.204 463.362L185.148 428.93C185.241 428.879 185.335 428.828 185.424 428.771C187.499 427.472 187.78 425.454 186.268 423.957ZM610.51 619.357L556.261 585.411C557.085 584.173 556.84 582.715 555.526 581.602L610.061 547.514C612.371 548.848 615.937 548.881 618.304 547.604L671.786 581.07C669.951 582.246 669.555 583.981 670.592 585.399L615.614 619.674C614.055 619.109 612.188 619.007 610.51 619.357ZM980.544 392.163L927.468 425.251C925.446 424.454 922.839 424.454 920.821 425.256L867.198 391.7C868.867 390.276 868.783 388.286 866.948 386.919L919.784 353.888C922.213 355.176 925.884 355.108 928.172 353.673C928.313 353.583 928.448 353.492 928.574 353.396L982.108 386.908C981.847 387.026 981.592 387.156 981.352 387.303C979.257 388.625 978.991 390.666 980.544 392.163ZM734.986 158.097L681.326 191.716C679.048 190.801 676.003 190.919 673.913 192.055L618.867 157.594C619.878 156.385 619.795 154.904 618.627 153.735L672.099 120.313C674.127 121.353 676.989 121.461 679.194 120.641L734.736 155.306C734.272 156.221 734.355 157.216 734.986 158.097ZM245.569 386.896L300.292 352.695C302.304 353.577 304.979 353.622 307.064 352.837L362.543 387.552C361.985 388.676 362.267 389.931 363.372 390.925L308.878 425.07C306.454 423.708 302.695 423.753 300.365 425.211C300.349 425.223 300.334 425.234 300.318 425.245L245.365 390.852C246.58 389.66 246.648 388.128 245.569 386.896ZM556.741 507.153C557.324 505.983 557.006 504.678 555.792 503.661L608.701 470.607C611.125 471.737 614.587 471.619 616.786 470.245C617.204 469.985 617.542 469.692 617.819 469.386L671.895 503.18C671.739 503.259 671.588 503.344 671.437 503.44C669.503 504.65 669.127 506.475 670.29 507.927L617.052 541.207C615.233 540.631 613.049 540.653 611.255 541.275L556.741 507.153ZM856.819 391.327L802.825 425.081C801.35 424.697 799.682 424.686 798.191 425.047L743.124 390.603C743.4 389.518 742.952 388.377 741.763 387.49L795.397 353.984C797.774 354.95 800.996 354.798 803.102 353.515L857.038 387.269C855.75 388.49 855.677 390.067 856.819 391.327ZM617.365 237.281L669.695 270.03C667.6 271.533 667.678 273.828 669.925 275.274L616.343 308.729C614.837 308.012 612.918 307.791 611.151 308.051L559.014 275.438C561.333 273.986 561.412 271.641 559.253 270.12L612.767 236.592C614.117 237.208 615.78 237.434 617.365 237.281ZM435.033 347.954L489.104 314.075C490.851 315.047 493.27 315.29 495.36 314.81L547.284 347.281C547.122 347.366 546.961 347.457 546.809 347.547C544.641 348.903 544.432 351.034 546.163 352.548L491.987 386.376C490.501 385.591 488.557 385.314 486.748 385.546L434.506 352.899C436.576 351.531 436.753 349.44 435.033 347.954ZM611.73 463.656L555.933 428.788C556.344 427.771 556.094 426.664 555.171 425.754L609.425 391.881C611.85 393.016 615.322 392.898 617.516 391.525C617.6 391.474 617.673 391.417 617.751 391.361L672.021 425.302C671.739 425.426 671.468 425.562 671.218 425.72C669.242 426.957 668.887 428.834 670.149 430.303L615.791 464.261C614.576 463.758 613.132 463.56 611.73 463.656ZM731.634 391.892L678.558 425.047C677.197 424.59 675.618 424.471 674.148 424.697L618.929 390.163C619.664 388.948 619.393 387.54 618.111 386.467L670.978 353.464C673.392 354.532 676.78 354.396 678.944 353.046C679.121 352.933 679.288 352.814 679.439 352.69L733.782 386.681C733.375 386.834 732.994 387.021 732.645 387.241C730.628 388.49 730.299 390.411 731.634 391.892ZM670.733 347.248C670.54 347.344 670.347 347.445 670.17 347.558C668.032 348.892 667.793 350.983 669.44 352.492L616.521 385.529C614.847 384.85 612.751 384.726 610.922 385.161L557.074 351.486C557.643 350.373 557.392 349.129 556.324 348.129L609.253 315.081C611.651 316.042 614.894 315.867 616.979 314.561C617.235 314.403 617.454 314.228 617.657 314.053L670.733 347.248ZM548.394 424.075L494.057 390.117C494.349 389.213 494.119 388.258 493.379 387.433L547.717 353.503C550.125 354.521 553.446 354.368 555.573 353.034C555.724 352.938 555.87 352.837 556.006 352.735L609.014 385.885C608.93 385.93 608.842 385.975 608.758 386.032C606.662 387.343 606.391 389.383 607.94 390.88L553.701 424.742C552.163 424.007 550.198 423.787 548.394 424.075ZM497.842 308.599L550.521 275.596C552.382 276.631 555.015 276.84 557.194 276.224L609.034 308.65C608.753 308.774 608.477 308.916 608.221 309.074C606.016 310.453 605.834 312.634 607.663 314.149L554.812 347.146C553.19 346.417 551.131 346.236 549.286 346.603L497.294 314.087C497.399 314.03 497.503 313.973 497.602 313.911C499.922 312.465 500 310.119 497.842 308.599ZM731.436 308.667C729.616 310.125 729.7 312.227 731.686 313.629L678.063 347.106C676.494 346.428 674.528 346.259 672.756 346.592L618.611 312.725C618.992 311.719 618.731 310.634 617.819 309.735L671.718 276.082C673.892 276.721 676.546 276.529 678.428 275.5L731.436 308.667ZM794.338 348.033C792.206 349.406 792.029 351.542 793.812 353.046L740.079 386.614C738.833 386.173 737.394 386.02 736.018 386.162L680.482 351.424C681.019 350.299 680.727 349.056 679.611 348.067L733.411 314.482C735.538 315.183 738.192 315.059 740.131 314.109L794.338 348.033ZM794.719 430.15L741.315 463.537C739.735 463.147 737.947 463.181 736.399 463.633L681.618 429.376C682.072 428.184 681.623 426.884 680.268 425.912L733.031 392.949C735.46 394.226 739.12 394.158 741.403 392.728C741.753 392.508 742.045 392.27 742.295 392.016L796.288 425.793C796.21 425.838 796.132 425.878 796.053 425.923C794.234 427.053 793.791 428.743 794.719 430.15ZM733.266 468.561L678.62 502.723C677.15 502.259 675.44 502.186 673.892 502.502L618.559 467.923C618.721 466.973 618.324 465.996 617.376 465.193L671.52 431.365C673.949 432.699 677.672 432.648 679.986 431.196C680.237 431.038 680.456 430.868 680.659 430.693L734.595 464.425C732.843 465.549 732.4 467.182 733.266 468.561ZM548.973 502.293L494.015 467.9C494.865 466.713 494.724 465.312 493.577 464.199L546.611 431.088C549.004 432.043 552.236 431.868 554.322 430.563C554.556 430.416 554.76 430.258 554.953 430.094L609.394 464.114C608.904 464.283 608.44 464.498 608.023 464.758C605.922 466.069 605.656 468.115 607.21 469.612L554.207 502.728C552.638 502.101 550.709 501.954 548.973 502.293ZM485.825 462.775L432.202 429.218C432.864 428.138 432.723 426.907 431.79 425.889L484.929 392.711C487.295 393.553 490.366 393.344 492.373 392.09C492.67 391.903 492.936 391.7 493.16 391.485L546.299 424.697C546.038 424.816 545.788 424.94 545.558 425.087C543.348 426.471 543.171 428.658 545.011 430.173L492.086 463.21C490.267 462.351 487.853 462.209 485.825 462.775ZM424.2 424.211L372.318 391.739C372.495 391.649 372.672 391.553 372.839 391.451C374.987 390.106 375.216 387.998 373.532 386.489L426.4 353.368C428.261 354.21 430.706 354.323 432.729 353.713L484.574 386.111C484.235 386.252 483.917 386.416 483.62 386.597C481.337 388.026 481.222 390.31 483.255 391.83L430.393 424.838C428.626 423.928 426.243 423.719 424.2 424.211ZM308.925 347.298L361.865 314.211C364.097 315.188 367.141 315.143 369.289 314.064L424.445 348.536C423.501 349.762 423.642 351.237 424.877 352.385L371.989 385.523C369.576 384.472 366.218 384.619 364.07 385.964C363.904 386.066 363.752 386.179 363.606 386.292L308.701 351.932C310.406 350.587 310.479 348.694 308.925 347.298ZM370.493 308.82L424.653 274.969C426.77 276.071 429.804 276.156 432.056 275.218L487.41 309.837C486.811 310.865 486.92 312.018 487.749 312.996L433.474 346.999C431.107 346.004 427.87 346.146 425.743 347.417L370.723 313.035C371.968 311.736 371.89 310.074 370.493 308.82ZM433.38 269.516L486.143 236.541C488.369 237.66 491.56 237.671 493.812 236.586L548.994 271.104C548.207 272.194 548.259 273.466 549.161 274.528L496.121 307.757C493.781 306.983 490.799 307.209 488.833 308.441C488.734 308.503 488.646 308.571 488.557 308.633L433.625 274.28C435.267 272.85 435.194 270.878 433.38 269.516ZM494.86 231.088L548.509 197.559C550.261 198.243 552.44 198.328 554.301 197.814L610.28 232.851C610.041 233.8 610.359 234.801 611.245 235.626L557.528 269.278C555.187 268.504 552.205 268.73 550.24 269.957L495.272 235.569C496.648 234.19 496.512 232.382 494.86 231.088ZM557.048 192.225L610.088 159.075C612.387 159.973 615.441 159.843 617.516 158.674L672.542 193.123C671.473 194.355 671.546 195.881 672.771 197.073L619.847 230.234C617.438 229.229 614.133 229.387 612.011 230.709C611.657 230.93 611.36 231.173 611.109 231.432L556.141 197.028C556.152 197.022 556.167 197.017 556.178 197.006C558.242 195.717 558.529 193.717 557.048 192.225ZM732.713 230.794C732.306 230.952 731.921 231.133 731.571 231.353C729.173 232.851 729.163 235.298 731.529 236.812L678.693 269.804C676.712 268.595 673.731 268.385 671.4 269.177L619.617 236.773C620.029 236.615 620.42 236.434 620.775 236.208C622.948 234.846 623.157 232.704 621.405 231.195L674.252 198.085C676.202 199.006 678.834 199.108 680.94 198.396L732.713 230.794ZM794.375 269.391C794.078 269.521 793.786 269.668 793.52 269.832C791.19 271.29 791.117 273.647 793.296 275.167L740.439 308.164C738.374 307.011 735.351 306.876 733.057 307.757L679.804 274.427C680.742 273.342 680.794 272.036 679.971 270.923L733.338 237.598C735.632 238.265 738.453 238.01 740.34 236.829C740.689 236.609 740.981 236.366 741.231 236.117L794.375 269.391ZM857.413 308.854C856.902 309.029 856.417 309.249 855.99 309.515C853.795 310.888 853.607 313.052 855.406 314.567L802.487 347.626C800.636 346.762 798.181 346.632 796.142 347.231L741.586 313.092C742.738 311.922 742.811 310.447 741.8 309.243L795.032 276.015C797.367 276.777 800.334 276.546 802.294 275.325C802.56 275.161 802.789 274.98 802.998 274.794L857.413 308.854ZM919.852 347.943C919.695 348.022 919.549 348.107 919.404 348.197C917.402 349.452 917.068 351.362 918.392 352.837L865.264 386.049C863.169 385.303 860.52 385.387 858.544 386.292L804.379 352.396C805.281 351.192 805.151 349.757 803.978 348.626L856.986 315.511C859.384 316.488 862.652 316.319 864.753 315.008C865.186 314.736 865.535 314.437 865.812 314.115L919.852 347.943ZM918.908 430.591L864.931 464.244C863.554 463.86 862.001 463.797 860.572 464.069L806.204 430.06C807.059 428.67 806.6 427.031 804.817 425.912C804.775 425.884 804.728 425.861 804.687 425.838L858.211 392.378C860.322 393.491 863.361 393.582 865.624 392.643L919.216 426.183C917.662 427.477 917.558 429.24 918.908 430.591ZM856.735 469.352L803.31 502.661C801.861 502.293 800.229 502.288 798.764 502.632L744.63 468.776C745.699 467.341 745.292 465.572 743.405 464.391C743.337 464.351 743.27 464.312 743.202 464.278L795.928 431.314C795.97 431.343 796.007 431.371 796.048 431.399C798.457 432.908 802.403 432.908 804.812 431.399C804.89 431.354 804.952 431.303 805.025 431.252L858.544 464.73C858.357 464.826 858.169 464.922 857.997 465.029C856.146 466.193 855.724 467.928 856.735 469.352ZM795.23 507.696L740.496 541.817C739.198 541.422 737.728 541.326 736.346 541.529L681.707 507.385C682.379 506.085 681.931 504.61 680.372 503.553L734.449 469.748C734.511 469.793 734.569 469.838 734.637 469.878C737.029 471.376 740.939 471.387 743.353 469.906L796.846 503.361C796.757 503.412 796.669 503.457 796.585 503.508C794.792 504.638 794.338 506.3 795.23 507.696ZM732.207 546.988L678.824 580.268C677.166 579.788 675.242 579.793 673.59 580.274L619.685 546.542C620.941 545.112 620.649 543.287 618.82 542.044L671.63 509.029C674.054 510.431 677.865 510.403 680.216 508.928C680.367 508.837 680.503 508.736 680.633 508.639L734.225 542.128C733.938 542.253 733.656 542.394 733.401 542.558C731.488 543.75 731.097 545.542 732.207 546.988ZM548.154 580.336L493.218 545.954C493.494 545.033 493.233 544.067 492.446 543.242L547.122 509.086C549.546 510.222 553.024 510.109 555.224 508.73C555.385 508.628 555.536 508.521 555.677 508.413L609.566 542.14C607.908 543.343 607.632 545.044 608.732 546.418L553.946 580.669C552.21 579.957 550.026 579.844 548.154 580.336ZM485.976 541.422L430.56 506.741C431.06 505.769 430.935 504.695 430.184 503.779L485.002 469.556C487.4 470.528 490.663 470.358 492.759 469.047L492.764 469.042L546.961 502.96C546.783 503.05 546.617 503.141 546.455 503.243C544.359 504.554 544.088 506.588 545.631 508.086L491.012 542.207C489.573 541.478 487.718 541.218 485.976 541.422ZM422.761 501.864L368.71 468.036C369.054 467.194 368.945 466.29 368.371 465.481L423.324 431.173C425.696 432.032 428.793 431.829 430.81 430.563C430.888 430.512 430.961 430.461 431.034 430.41L484.001 463.56C484.001 463.56 483.995 463.56 483.995 463.566C481.801 464.939 481.613 467.109 483.417 468.623L428.845 502.689C427.161 501.728 424.82 501.451 422.761 501.864ZM361.161 463.317L309.071 430.721C309.087 430.71 309.107 430.704 309.123 430.693C311.083 429.466 311.448 427.607 310.223 426.144L364.905 391.886C366.495 392.581 368.496 392.751 370.295 392.406L422.286 424.94C422.203 424.985 422.12 425.03 422.041 425.081C419.768 426.5 419.643 428.777 421.645 430.297L367.12 464.34C367.115 464.334 367.105 464.329 367.099 464.323C365.499 463.323 363.221 462.989 361.161 463.317ZM248.337 308.554L301.475 275.319C303.295 275.941 305.51 275.958 307.345 275.359L360.572 308.622C358.868 309.961 358.784 311.854 360.327 313.25L307.382 346.343C305.161 345.377 302.137 345.428 300 346.49L246.992 313.318C247.091 313.261 247.19 313.211 247.284 313.154C249.26 311.911 249.609 310.023 248.337 308.554ZM309.889 270.058L364.196 236.095C365.942 236.829 368.163 236.948 370.06 236.451L423.454 269.844C422.156 271.07 422.088 272.658 423.246 273.924L368.95 307.859C366.943 306.989 364.289 306.943 362.215 307.723L309.071 274.511C310.854 273.268 311.125 271.471 309.889 270.058ZM372.803 230.709L425.675 197.638C427.541 198.401 429.934 198.469 431.894 197.848L485.127 231.144C483.563 232.41 483.432 234.151 484.72 235.501L431.707 268.634C429.611 267.883 426.952 267.956 424.971 268.86L371.927 235.688C371.968 235.665 372.01 235.643 372.047 235.62C374.168 234.292 374.419 232.218 372.803 230.709ZM434.256 192.275L488.062 158.623C489.344 159.024 490.804 159.126 492.18 158.939L546.132 192.705C545.23 193.982 545.485 195.508 546.893 196.65L493.212 230.201C491.226 229.455 488.708 229.466 486.737 230.24L433.641 197.017C435.57 195.694 435.778 193.728 434.256 192.275ZM496.377 153.424L549.609 120.133C551.522 120.743 553.842 120.686 555.688 119.974L608.774 153.209C606.777 154.605 606.673 156.696 608.471 158.159L555.589 191.213C553.164 190.038 549.635 190.139 547.409 191.53C547.399 191.535 547.388 191.546 547.378 191.552L494.338 158.357C494.651 158.222 494.948 158.075 495.225 157.899C497.148 156.69 497.529 154.876 496.377 153.424ZM557.945 114.917L611.552 81.3882C613.184 82.0946 615.238 82.2528 617.063 81.8685L670.702 115.346C669.565 116.555 669.56 118.07 670.686 119.279L617.162 152.729C615.233 151.796 612.611 151.672 610.499 152.361L557.309 119.065C558.8 117.867 559.014 116.239 557.945 114.917ZM742.55 160.182L794.594 192.665C794.469 192.733 794.338 192.801 794.218 192.875C791.998 194.265 791.826 196.469 793.702 197.989L740.298 231.331C738.844 230.432 736.847 230.082 734.96 230.274L682.645 197.525C684.574 196.141 684.663 194.09 682.921 192.643L736.237 159.239L736.242 159.244C737.942 160.307 740.402 160.618 742.55 160.182ZM856.391 231.229C856.318 231.269 856.24 231.308 856.172 231.353C854.014 232.704 853.795 234.823 855.5 236.332L802.054 269.697C800.511 268.826 798.431 268.527 796.512 268.798L742.06 234.71C742.253 233.953 742.091 233.167 741.57 232.461L795.324 198.899C797.716 199.831 800.917 199.65 802.987 198.356C803.112 198.277 803.227 198.198 803.336 198.113L856.391 231.229ZM919.477 270.601C919.179 270.731 918.898 270.872 918.637 271.036C916.63 272.29 916.302 274.212 917.636 275.692L864.076 309.153C862.814 308.565 861.271 308.311 859.775 308.401L803.941 273.449C804.264 272.556 804.092 271.612 803.409 270.787L857.059 237.298C859.467 238.333 862.809 238.186 864.946 236.846C865.019 236.801 865.087 236.75 865.16 236.699L919.477 270.601ZM982.103 309.69C982.087 309.701 982.066 309.707 982.051 309.718C980.252 310.843 979.799 312.499 980.68 313.9L926.827 347.564C925.3 347.027 923.48 346.925 921.843 347.265L866.531 312.64C866.661 311.781 866.338 310.899 865.567 310.148L919.028 276.749C921.458 278.026 925.117 277.959 927.401 276.529C927.666 276.359 927.901 276.184 928.11 275.992L982.103 309.69ZM1044.44 348.587C1044.29 348.666 1044.15 348.745 1044 348.83C1042.08 350.039 1041.7 351.865 1042.86 353.317L989.141 386.806C987.671 386.201 985.872 386.037 984.214 386.297L929.668 352.153C930.325 350.904 929.945 349.48 928.521 348.429L981.879 315.075C981.941 315.115 981.993 315.16 982.056 315.2C984.464 316.709 988.411 316.709 990.819 315.2C990.84 315.188 990.856 315.172 990.877 315.16L1044.44 348.587ZM1105.11 390.287L1051.62 423.685C1049.38 422.533 1046.13 422.521 1043.86 423.64L991.737 391.01C992.185 389.903 991.846 388.699 990.72 387.75L1044.18 354.419C1046.61 355.82 1050.42 355.792 1052.77 354.317C1052.91 354.227 1053.05 354.136 1053.17 354.04L1104.92 386.337C1103.84 387.563 1103.9 389.095 1105.11 390.287ZM1042.89 429.139L990.011 462.153C987.582 460.921 983.98 461.011 981.722 462.424C981.462 462.588 981.232 462.763 981.029 462.95L929.376 430.625C930.758 429.269 930.654 427.483 929.079 426.189L982.046 393.169C984.47 394.299 987.931 394.181 990.131 392.807C990.366 392.66 990.574 392.502 990.762 392.338L1042.42 424.674C1041.06 426.048 1041.22 427.856 1042.89 429.139ZM981.279 467.601L927.599 501.112C925.352 500.242 922.396 500.355 920.331 501.451L868.309 468.912C868.95 467.584 868.439 466.08 866.771 465.035C866.766 465.035 866.766 465.029 866.76 465.029L920.373 431.603C922.578 432.665 925.68 432.671 927.891 431.62L980.075 464.278C979.658 465.414 980.054 466.646 981.279 467.601ZM919.065 506.435L866.046 539.534C863.711 538.687 860.671 538.868 858.643 540.077L806.756 507.628C807.596 506.243 807.132 504.616 805.354 503.503C805.297 503.469 805.239 503.44 805.182 503.406L857.976 470.494C857.987 470.5 857.992 470.505 858.002 470.511C860.411 472.02 864.357 472.02 866.766 470.511C866.943 470.404 867.099 470.285 867.25 470.166L918.94 502.497C917.85 503.723 917.892 505.243 919.065 506.435ZM857.575 544.83L803.253 578.742C801.079 577.804 798.154 577.832 796.027 578.827L743.801 546.191C744.26 544.959 743.754 543.615 742.279 542.637L796.429 508.877C796.486 508.916 796.538 508.956 796.601 508.995C799.009 510.504 802.956 510.504 805.364 508.995C805.448 508.945 805.521 508.888 805.599 508.832L857.356 541.202C856.469 542.349 856.548 543.716 857.575 544.83ZM794.625 584.128L741.643 617.204C739.235 616.181 735.909 616.334 733.782 617.667C733.709 617.713 733.646 617.764 733.573 617.809L681.816 585.422C682.875 583.998 682.484 582.24 680.633 581.059L733.5 548.102C735.919 549.548 739.782 549.526 742.159 548.039C742.42 547.876 742.644 547.7 742.847 547.519L794.531 579.816C793.181 581.127 793.212 582.839 794.625 584.128ZM733.026 622.584L678.417 656.677C676.071 655.457 672.594 655.491 670.305 656.779L618.356 624.274C619.023 623.031 618.668 621.618 617.277 620.561L671.843 586.541C674.241 588.027 678.125 588.027 680.534 586.558L732.384 619.007C731.67 620.171 731.884 621.522 733.026 622.584ZM669.685 662.131L618.981 693.783C616.562 692.687 613.142 692.817 610.969 694.179C610.682 694.36 610.432 694.552 610.213 694.755L558.55 662.447C560.134 660.961 559.905 658.932 557.861 657.604L608.544 626.009C610.974 627.274 614.613 627.195 616.886 625.771C617.021 625.687 617.141 625.602 617.261 625.511L668.96 657.864C667.834 659.221 668.074 660.916 669.685 662.131ZM496.345 623.545C498.113 622.115 498.066 620.081 496.199 618.685L546.862 587.016C549.286 588.14 552.742 588.021 554.937 586.648C554.979 586.626 555.01 586.597 555.046 586.569L608.534 620.041C608.393 620.114 608.252 620.193 608.117 620.273C606.099 621.533 605.776 623.466 607.137 624.946L556.068 656.785C554.118 656.203 551.772 656.293 549.948 657.056L496.345 623.545ZM433.537 584.269C434.564 583.014 434.423 581.477 433.13 580.296L483.948 548.548C486.331 549.441 489.474 549.249 491.518 547.972C491.836 547.774 492.107 547.559 492.342 547.333L546.293 581.099C546.252 581.121 546.21 581.144 546.168 581.167C544.067 582.483 543.796 584.529 545.36 586.027L494.521 617.809C492.373 617.046 489.641 617.142 487.65 618.108L433.537 584.269ZM370.707 544.976C372.047 543.728 372.094 542.094 370.863 540.812L421.828 508.995C424.158 509.747 427.103 509.51 429.053 508.295C429.204 508.199 429.345 508.103 429.481 508.001L483.776 541.976C483.411 542.123 483.067 542.292 482.755 542.49C480.508 543.897 480.357 546.141 482.301 547.655L431.603 579.33C429.71 578.494 427.223 578.398 425.195 579.047L370.707 544.976ZM308.915 506.334C310.035 505.164 310.093 503.706 309.081 502.508L360.181 470.601C362.46 471.24 365.238 470.98 367.105 469.81C367.334 469.663 367.537 469.511 367.725 469.347L420.764 502.536C420.603 502.621 420.441 502.706 420.29 502.802C417.949 504.265 417.887 506.633 420.092 508.153L369.43 539.783C367.313 538.726 364.326 538.664 362.11 539.596L308.915 506.334ZM248.608 468.618C249.114 468.443 249.593 468.228 250.021 467.957C252.049 466.691 252.362 464.747 250.985 463.26L301.866 431.382C303.535 431.925 305.521 431.964 307.236 431.495L359.071 463.933C358.816 464.052 358.565 464.176 358.336 464.323C355.927 465.832 355.927 468.301 358.336 469.81C358.341 469.81 358.346 469.816 358.352 469.816L307.721 501.429C305.672 500.293 302.695 500.157 300.417 501.01L248.608 468.618ZM115.754 461.74L62.6681 428.528C64.4875 427.302 64.8055 425.505 63.6117 424.081L117.438 390.417C118.554 390.745 119.795 390.852 120.999 390.745L175.242 424.669C174.513 425.895 174.799 427.308 176.113 428.381L122.605 461.825C120.561 460.938 117.84 460.91 115.754 461.74ZM176.874 353.243C178.516 353.656 180.383 353.605 181.973 353.108L235.205 386.422C233.458 387.863 233.537 389.908 235.445 391.293L184.793 422.951C182.369 421.792 178.866 421.9 176.65 423.284C176.561 423.341 176.483 423.403 176.4 423.459L123.272 390.23C123.699 390.072 124.101 389.88 124.466 389.654C126.358 388.473 126.759 386.698 125.68 385.257L176.874 353.243ZM857.726 153.949C857.424 154.079 857.132 154.226 856.866 154.396C854.822 155.673 854.52 157.639 855.938 159.131L802.403 192.558C800.719 191.739 798.498 191.541 796.554 191.965L744.547 159.51C744.708 159.431 744.86 159.34 745.011 159.25C747.419 157.741 747.419 155.272 745.011 153.763C745.006 153.763 745 153.757 745 153.757L798.321 120.353C798.498 120.5 798.681 120.641 798.895 120.777C800.787 121.964 803.623 122.212 805.922 121.534L857.726 153.949ZM919.409 192.558C919.205 192.66 919.002 192.762 918.814 192.88C916.839 194.118 916.484 196 917.751 197.475L864.138 230.946C862.418 230.184 860.202 230.031 858.289 230.494L804.447 196.893C805.046 195.802 804.853 194.576 803.863 193.575L857.371 160.166C859.801 161.386 863.387 161.296 865.634 159.889C865.905 159.719 866.135 159.538 866.343 159.352L919.409 192.558ZM982.431 231.998C982.025 232.156 981.634 232.337 981.279 232.557C979.47 233.693 979.017 235.366 979.929 236.767L926.076 270.409C924.711 269.923 923.105 269.787 921.609 270.007L866.323 235.501C867.047 234.326 866.828 232.975 865.666 231.907L919.127 198.531C921.557 199.859 925.274 199.803 927.583 198.356C927.771 198.237 927.938 198.113 928.099 197.983L982.431 231.998ZM1044.93 271.109C1044.85 271.155 1044.78 271.194 1044.7 271.239C1043.12 272.228 1042.59 273.624 1043.08 274.896L988.745 308.859C987.207 308.475 985.471 308.497 983.954 308.91L929.053 274.647C929.475 273.494 929.048 272.24 927.771 271.285L981.144 237.943C981.191 237.977 981.238 238.01 981.29 238.044C983.698 239.553 987.645 239.553 990.053 238.044C990.408 237.824 990.699 237.581 990.95 237.327L1044.93 271.109ZM1107.17 310.069C1107 310.159 1106.82 310.255 1106.65 310.357C1104.9 311.453 1104.43 313.064 1105.23 314.437L1051.2 348.124C1049.71 347.654 1047.99 347.581 1046.42 347.909L992.112 314.013C993.092 312.595 992.665 310.877 990.819 309.724C990.757 309.684 990.689 309.65 990.627 309.616L1044.03 276.229C1044.23 276.404 1044.45 276.574 1044.7 276.732C1047.11 278.241 1051.05 278.241 1053.46 276.732C1053.53 276.687 1053.6 276.636 1053.66 276.591L1107.17 310.069ZM489.527 695.586L435.231 661.617C436.107 660.266 435.711 658.661 434.058 657.531L487.467 624.144C489.537 625.229 492.482 625.33 494.724 624.46L548.384 658.017C547.049 659.17 546.856 660.69 547.805 661.95L493.723 695.665C492.383 695.337 490.892 695.309 489.527 695.586ZM427.15 656.565L372.167 622.166C372.464 621.115 372.073 620.001 370.988 619.12L424.502 585.688C426.838 586.693 430.049 586.586 432.197 585.36L486.19 619.126C484.991 620.335 484.949 621.866 486.07 623.098L432.311 656.706C430.706 656.192 428.808 656.141 427.15 656.565ZM364.972 617.662L309.509 582.964C310.072 581.845 309.806 580.601 308.722 579.601L362.35 546.124C364.456 546.92 367.172 546.864 369.19 545.954L423.449 579.889C421.484 581.24 421.322 583.263 422.959 584.727L369.377 618.199C368.053 617.673 366.474 617.498 364.972 617.662ZM301.741 578.104L247.659 544.27C248.061 543.275 247.821 542.202 246.955 541.303L300.688 507.752C302.836 508.47 305.531 508.34 307.486 507.368L360.552 540.552C358.946 541.947 358.998 543.869 360.718 545.231L307.205 578.641C305.589 577.923 303.561 577.742 301.741 578.104ZM188.03 506.961C188.041 506.955 188.056 506.944 188.072 506.938C190.147 505.639 190.429 503.638 188.938 502.141L242.524 468.567C243.666 468.979 244.974 469.155 246.252 469.076L298.77 501.92C296.914 503.378 296.982 505.492 298.968 506.899L245.511 540.28C243.968 539.517 241.966 539.28 240.137 539.568L188.03 506.961Z" fill="#D8D8D8"/>
</svg>
