<svg width="130" height="130" viewBox="0 0 130 130" fill="none" xmlns="http://www.w3.org/2000/svg">
<path d="M90.0877 33.8102C89.824 33.5477 89.4663 33.4003 89.0934 33.4003C88.7206 33.4003 88.3629 33.5477 88.0992 33.8102L78.465 43.4016L68.8603 47.1438L57.5105 43.3764L47.9002 33.8102C47.6365 33.5477 47.2788 33.4003 46.9059 33.4003C46.5331 33.4003 46.1754 33.5477 45.9117 33.8102L26.2242 53.4102C25.9606 53.6727 25.8125 54.0287 25.8125 54.4C25.8125 54.7712 25.9606 55.1272 26.2242 55.3898L35.767 64.8902L38.3489 77.7394L37.2338 78.851C36.4808 79.6005 35.968 80.5554 35.7603 81.5951C35.5525 82.6348 35.6591 83.7124 36.0666 84.6917C36.4741 85.6711 37.1641 86.5081 38.0495 87.097C38.9348 87.6858 39.9757 88.0001 41.0405 88C41.1305 88 41.2177 87.979 41.3077 87.9734C41.3077 88.0644 41.2809 88.1498 41.2809 88.2408C41.2828 89.6618 41.8508 91.0241 42.8602 92.0288C43.8696 93.0334 45.2381 93.5985 46.6655 93.6C46.7555 93.6 46.8427 93.579 46.9327 93.5734C46.9327 93.6644 46.9059 93.7498 46.9059 93.8408C46.9078 95.2618 47.4758 96.6241 48.4852 97.6288C49.4946 98.6334 50.8631 99.1985 52.2905 99.2C52.3805 99.2 52.4677 99.179 52.5577 99.1734C52.5577 99.2644 52.5309 99.3498 52.5309 99.4408C52.5308 100.501 52.8465 101.537 53.438 102.418C54.0295 103.3 54.8703 103.987 55.854 104.393C56.8377 104.798 57.9201 104.904 58.9644 104.698C60.0087 104.491 60.9679 103.98 61.7208 103.231L63.0764 101.88L65.8397 104.631C66.5925 105.381 67.5518 105.892 68.5964 106.099C69.6409 106.306 70.7237 106.2 71.7077 105.794C72.6917 105.388 73.5326 104.701 74.1242 103.819C74.7158 102.938 75.0313 101.901 75.0309 100.841C75.0309 100.75 75.0099 100.664 75.0042 100.573C75.0942 100.573 75.1814 100.6 75.2714 100.6C76.6988 100.599 78.0673 100.033 79.0767 99.0288C80.0861 98.0241 80.6541 96.6618 80.6559 95.2408C80.6559 95.1498 80.6349 95.0644 80.6292 94.9734C80.7192 94.9734 80.8064 95 80.8964 95C82.3238 94.9985 83.6923 94.4334 84.7017 93.4288C85.7111 92.4241 86.2791 91.0618 86.2809 89.6408C86.2809 89.5498 86.2599 89.4644 86.2542 89.3734C86.3442 89.3734 86.4314 89.4 86.5214 89.4C87.5862 89.4001 88.6271 89.0858 89.5124 88.497C90.3978 87.9081 91.0878 87.0711 91.4953 86.0917C91.9028 85.1124 92.0094 84.0348 91.8016 82.9951C91.5939 81.9554 91.0811 81.0005 90.3281 80.251L89.5308 79.4558L100.009 65.1128L109.775 55.3898C110.039 55.1272 110.187 54.7712 110.187 54.4C110.187 54.0287 110.039 53.6727 109.775 53.4102L90.0877 33.8102ZM46.9059 36.7796L54.7613 44.6L37.0622 62.2204L29.2069 54.4L46.9059 36.7796ZM41.0405 85.2C40.5319 85.2002 40.0347 85.0502 39.6117 84.769C39.1888 84.4878 38.8591 84.0881 38.6644 83.6203C38.4698 83.1525 38.4189 82.6378 38.5182 82.1412C38.6174 81.6446 38.8625 81.1885 39.2222 80.8306L41.1094 78.949C41.4691 78.591 41.9273 78.3473 42.4261 78.2486C42.9249 78.1498 43.442 78.2005 43.9118 78.3943C44.3817 78.588 44.7833 78.9161 45.066 79.337C45.3486 79.758 45.4995 80.2529 45.4997 80.7592C45.4979 81.4379 45.227 82.0885 44.7459 82.5694L42.8588 84.451C42.6204 84.6891 42.3369 84.878 42.0249 85.0065C41.7128 85.1351 41.3782 85.2008 41.0405 85.2ZM46.6655 90.8C46.1569 90.8002 45.6597 90.6502 45.2367 90.369C44.8138 90.0878 44.4841 89.6881 44.2894 89.2203C44.0948 88.7525 44.0439 88.2378 44.1432 87.7412C44.2424 87.2446 44.4875 86.7885 44.8472 86.4306L46.7344 84.549C47.0941 84.191 47.5523 83.9473 48.0511 83.8486C48.5499 83.7498 49.067 83.8005 49.5368 83.9943C50.0067 84.188 50.4083 84.5161 50.691 84.937C50.9736 85.358 51.1245 85.8529 51.1247 86.3592C51.1229 87.0379 50.852 87.6885 50.371 88.1694L48.4838 90.051C48.2454 90.2891 47.9619 90.478 47.6499 90.6065C47.3378 90.7351 47.0032 90.8008 46.6655 90.8ZM52.2905 96.4C51.7819 96.4002 51.2847 96.2502 50.8617 95.969C50.4388 95.6879 50.1091 95.2881 49.9144 94.8203C49.7198 94.3525 49.6689 93.8378 49.7682 93.3412C49.8674 92.8446 50.1125 92.3885 50.4722 92.0306L52.3594 90.149C52.7191 89.791 53.1773 89.5473 53.6761 89.4486C54.1749 89.3498 54.692 89.4005 55.1618 89.5943C55.6317 89.788 56.0333 90.1161 56.316 90.537C56.5986 90.958 56.7495 91.4529 56.7497 91.9592C56.7479 92.6379 56.477 93.2885 55.996 93.7694L54.1088 95.651C53.8704 95.8891 53.5869 96.078 53.2749 96.2065C52.9628 96.3351 52.6282 96.4008 52.2905 96.4ZM61.6209 99.3694L59.7338 101.251C59.3741 101.609 58.9158 101.853 58.417 101.951C57.9182 102.05 57.4012 101.999 56.9313 101.806C56.4614 101.612 56.0598 101.284 55.7772 100.863C55.4946 100.442 55.3436 99.9471 55.3434 99.4408C55.3452 98.7621 55.6161 98.1115 56.0972 97.6306L57.9844 95.749C58.3441 95.391 58.8023 95.1473 59.3011 95.0486C59.7999 94.9498 60.317 95.0005 60.7868 95.1943C61.2567 95.388 61.6583 95.7161 61.941 96.137C62.2236 96.558 62.3745 97.0529 62.3747 97.5592C62.3729 98.2379 62.102 98.8885 61.6209 99.3694ZM86.5214 86.6C86.1837 86.6008 85.8491 86.5351 85.537 86.4065C85.225 86.278 84.9415 86.0891 84.7031 85.851L78.8377 80.0102L76.8492 81.9898L82.7161 87.8306C83.0752 88.1888 83.3197 88.645 83.4185 89.1415C83.5174 89.638 83.4662 90.1525 83.2715 90.6201C83.0768 91.0876 82.7472 91.4872 82.3245 91.7684C81.9018 92.0496 81.4048 92.1998 80.8964 92.2C80.5587 92.2008 80.2241 92.1351 79.912 92.0065C79.6 91.878 79.3165 91.6891 79.0781 91.451L73.2127 85.6102L71.2242 87.5898L77.0911 93.4306C77.4502 93.7888 77.6947 94.245 77.7935 94.7415C77.8924 95.238 77.8412 95.7525 77.6465 96.2201C77.4518 96.6876 77.1222 97.0873 76.6995 97.3685C76.2768 97.6496 75.7798 97.7998 75.2714 97.8C74.9337 97.8008 74.5991 97.7351 74.287 97.6065C73.975 97.478 73.6915 97.2891 73.4531 97.051L67.5877 91.2102L65.5992 93.1898L71.4661 99.0306C71.8252 99.3888 72.0697 99.845 72.1685 100.342C72.2674 100.838 72.2162 101.353 72.0215 101.82C71.8268 102.288 71.4972 102.687 71.0745 102.968C70.6518 103.25 70.1548 103.4 69.6464 103.4C69.3087 103.401 68.9741 103.335 68.662 103.207C68.35 103.078 68.0665 102.889 67.8281 102.651L64.7794 99.62C65.1186 98.8049 65.2506 97.9192 65.1639 97.0411C65.0772 96.1631 64.7744 95.32 64.2823 94.5862C63.7902 93.8525 63.124 93.2509 62.3426 92.8347C61.5612 92.4185 60.6889 92.2005 59.8027 92.2C59.7127 92.2 59.6255 92.221 59.5355 92.2266C59.5355 92.1356 59.5622 92.0502 59.5622 91.9592C59.5603 90.5382 58.9924 89.1759 57.983 88.1712C56.9735 87.1665 55.605 86.6015 54.1777 86.6C54.0877 86.6 54.0005 86.621 53.9105 86.6266C53.9105 86.5356 53.9372 86.4502 53.9372 86.3592C53.9353 84.9382 53.3674 83.5759 52.358 82.5712C51.3485 81.5665 49.98 81.0015 48.5527 81C48.4627 81 48.3755 81.021 48.2855 81.0266C48.2855 80.9356 48.3122 80.8502 48.3122 80.7592C48.3132 79.8739 48.0938 79.0022 47.6737 78.222C47.2536 77.4418 46.6459 76.7773 45.9048 76.2881C45.1638 75.7988 44.3125 75.5 43.4271 75.4183C42.5416 75.3366 41.6497 75.4746 40.8309 75.82L38.588 64.6564L57.1294 46.2016L64.7653 48.737L62.5617 49.5952C62.3809 49.6661 62.2168 49.7733 62.0794 49.9102L48.4795 63.451C47.4699 64.4561 46.9028 65.8193 46.9028 67.2408C46.9028 68.6622 47.4699 70.0255 48.4795 71.0306C49.4891 72.0357 50.8585 72.6004 52.2863 72.6004C53.7141 72.6004 55.0834 72.0357 56.093 71.0306L62.431 64.7194C64.4217 66.2697 66.8785 67.108 69.4059 67.0994C70.5103 67.1001 71.6088 66.9406 72.667 66.6262L88.3411 82.2306C88.7002 82.5888 88.9447 83.045 89.0435 83.5415C89.1424 84.038 89.0912 84.5525 88.8965 85.0201C88.7018 85.4876 88.3722 85.8873 87.9495 86.1684C87.5268 86.4496 87.0298 86.5998 86.5214 86.6ZM87.5185 77.4524L75.3994 65.3872C76.1352 64.9328 76.8169 64.3969 77.4314 63.7898L78.8377 62.3898L76.8492 60.4102L75.443 61.8102C73.8417 63.4039 71.6702 64.2992 69.4059 64.2992C67.1417 64.2992 64.9702 63.4039 63.3689 61.8102C63.1052 61.5477 62.7476 61.4003 62.3747 61.4003C62.0018 61.4003 61.6442 61.5477 61.3805 61.8102L54.1088 69.051C53.7491 69.4089 53.2908 69.6527 52.792 69.7514C52.2932 69.8501 51.7762 69.7994 51.3063 69.6057C50.8364 69.4119 50.4348 69.0839 50.1522 68.6629C49.8696 68.242 49.7186 67.7471 49.7184 67.2408C49.7202 66.5621 49.9911 65.9115 50.4722 65.4306L63.8639 52.097L68.9391 50.1202H68.9616V50.102L78.8995 46.231L97.0922 64.34L87.5185 77.4524ZM98.9372 62.2204L81.2381 44.6L89.0934 36.7796L106.793 54.4L98.9372 62.2204Z" fill="white"/>
<path d="M98.937 52.4207L96.9482 54.4006L98.937 56.3805L100.926 54.4006L98.937 52.4207Z" fill="white"/>
<path d="M37.0625 52.4204L35.0737 54.4003L37.0625 56.3802L39.0512 54.4003L37.0625 52.4204Z" fill="white"/>
</svg>
