<svg viewBox="0 0 54 54" fill="none" xmlns="http://www.w3.org/2000/svg">
<path d="M40.5 29.25V45H9V13.5H20.295C20.4075 11.9025 20.79 10.395 21.375 9H9C6.525 9 4.5 11.025 4.5 13.5V45C4.5 47.475 6.525 49.5 9 49.5H40.5C42.975 49.5 45 47.475 45 45V33.75L40.5 29.25ZM37.125 40.5H12.375L18.5625 32.5575L22.9725 37.8675L29.16 29.9025L37.125 40.5ZM43.425 20.0025C44.415 18.4275 45 16.605 45 14.625C45 9.0225 40.4775 4.5 34.875 4.5C29.2725 4.5 24.75 9.0225 24.75 14.625C24.75 20.2275 29.2725 24.75 34.8525 24.75C36.8325 24.75 38.6775 24.165 40.23 23.175L47.25 30.195L50.445 27L43.425 20.0025ZM34.875 20.25C31.77 20.25 29.25 17.73 29.25 14.625C29.25 11.52 31.77 9 34.875 9C37.98 9 40.5 11.52 40.5 14.625C40.5 17.73 37.98 20.25 34.875 20.25Z" fill="#2CD18A"/>
</svg>
