<svg width="47" height="47" viewBox="0 0 47 47" fill="none" xmlns="http://www.w3.org/2000/svg">
<g clip-path="url(#clip0)">
<rect width="47" height="47" fill="white"/>
<path d="M5.87473 37.2083C5.7439 37.217 5.61274 37.1976 5.49002 37.1514C5.3673 37.1053 5.25585 37.0334 5.16314 36.9407C5.07043 36.848 4.9986 36.7366 4.95245 36.6139C4.9063 36.4911 4.88691 36.36 4.89556 36.2291V22.5208C4.89531 22.3948 4.92091 22.2701 4.9708 22.1545C5.02068 22.0388 5.09378 21.9346 5.18557 21.8483C5.27737 21.762 5.38589 21.6955 5.50443 21.6528C5.62297 21.6102 5.74901 21.5923 5.87473 21.6004H41.1247C41.3688 21.6004 41.603 21.6974 41.7756 21.87C41.9482 22.0426 42.0451 22.2767 42.0451 22.5208C42.0451 22.7649 41.9482 22.999 41.7756 23.1716C41.603 23.3442 41.3688 23.4412 41.1247 23.4412H6.75598V36.2291C6.76391 36.3516 6.74727 36.4745 6.70702 36.5904C6.66678 36.7064 6.60374 36.8131 6.52163 36.9044C6.43951 36.9956 6.33998 37.0695 6.22889 37.1217C6.11779 37.1739 5.99738 37.2033 5.87473 37.2083Z" fill="#2CD18A"/>
<path d="M41.1245 37.2083C40.8804 37.2083 40.6463 37.1113 40.4737 36.9387C40.3011 36.7661 40.2041 36.532 40.2041 36.2879V22.5208C40.2041 22.2689 40.3042 22.0273 40.4823 21.8492C40.6604 21.6711 40.902 21.571 41.1539 21.571C41.4058 21.571 41.6474 21.6711 41.8255 21.8492C42.0036 22.0273 42.1037 22.2689 42.1037 22.5208V36.2291C42.1123 36.36 42.0929 36.4911 42.0468 36.6138C42.0006 36.7366 41.9288 36.848 41.8361 36.9407C41.7434 37.0334 41.6319 37.1053 41.5092 37.1514C41.3865 37.1976 41.2553 37.217 41.1245 37.2083Z" fill="#2CD18A"/>
<path d="M23.4995 27.3677C23.2554 27.3677 23.0213 27.2707 22.8487 27.0981C22.6761 26.9255 22.5791 26.6914 22.5791 26.4473V14.6875C22.5791 14.4434 22.6761 14.2093 22.8487 14.0367C23.0213 13.8641 23.2554 13.7671 23.4995 13.7671C23.7436 13.7671 23.9777 13.8641 24.1503 14.0367C24.323 14.2093 24.4199 14.4434 24.4199 14.6875V26.4375C24.4212 26.5592 24.3984 26.6799 24.3527 26.7927C24.307 26.9055 24.2394 27.0082 24.1538 27.0947C24.0682 27.1812 23.9663 27.2499 23.854 27.2967C23.7417 27.3436 23.6212 27.3677 23.4995 27.3677Z" fill="#2CD18A"/>
<path d="M23.4996 30.3542C23.2564 30.3518 23.0241 30.2532 22.8533 30.08C22.7653 29.9972 22.6955 29.897 22.6483 29.7857C22.6011 29.6745 22.5776 29.5546 22.5792 29.4338C22.5801 29.313 22.6033 29.1935 22.6477 29.0813C22.6913 28.9652 22.7618 28.8612 22.8533 28.7777C22.9804 28.6543 23.1404 28.5702 23.3141 28.5355C23.4877 28.5007 23.6678 28.5169 23.8325 28.5819C23.946 28.6257 24.049 28.6927 24.1351 28.7787C24.2211 28.8647 24.2881 28.9678 24.3319 29.0813C24.3763 29.1935 24.3995 29.313 24.4004 29.4338C24.401 29.5536 24.378 29.6723 24.3326 29.7832C24.2873 29.8941 24.2205 29.995 24.1361 30.08C23.9644 30.2459 23.7381 30.3434 23.4996 30.3542Z" fill="#2CD18A"/>
<path d="M30.3545 15.5883H16.6462C16.5221 15.5963 16.3977 15.579 16.2804 15.5376C16.1632 15.4961 16.0556 15.4313 15.9641 15.3472C15.8726 15.263 15.7991 15.1611 15.748 15.0477C15.6969 14.9344 15.6694 14.8118 15.667 14.6875V0.920402C15.6667 0.794424 15.6923 0.669735 15.7422 0.554055C15.7921 0.438375 15.8652 0.334167 15.957 0.247884C16.0488 0.1616 16.1573 0.0950784 16.2759 0.0524373C16.3944 0.0097962 16.5204 -0.00805638 16.6462 -1.49845e-05H30.3545C30.4802 -0.00805638 30.6062 0.0097962 30.7248 0.0524373C30.8433 0.0950784 30.9519 0.1616 31.0436 0.247884C31.1354 0.334167 31.2085 0.438375 31.2584 0.554055C31.3083 0.669735 31.3339 0.794424 31.3337 0.920402V14.6875C31.3313 14.8118 31.3037 14.9344 31.2527 15.0477C31.2016 15.1611 31.1281 15.263 31.0366 15.3472C30.9451 15.4313 30.8375 15.4961 30.7202 15.5376C30.603 15.579 30.4786 15.5963 30.3545 15.5883ZM17.547 13.7083H29.4537V1.84082H17.547V13.7083Z" fill="#2CD18A"/>
<path d="M10.7708 47H0.920417C0.676307 47 0.442195 46.903 0.269584 46.7304C0.0969722 46.5578 0 46.3237 0 46.0796L0 36.2291C0 35.985 0.0969722 35.7509 0.269584 35.5783C0.442195 35.4057 0.676307 35.3087 0.920417 35.3087H10.7708C11.0149 35.3087 11.2491 35.4057 11.4217 35.5783C11.5943 35.7509 11.6912 35.985 11.6912 36.2291V46.0208C11.6993 46.1465 11.6814 46.2726 11.6388 46.3911C11.5962 46.5096 11.5296 46.6182 11.4434 46.71C11.3571 46.8017 11.2529 46.8748 11.1372 46.9247C11.0215 46.9746 10.8968 47.0002 10.7708 47ZM1.84083 45.1591H9.79167V37.2083H1.84083V45.1591Z" fill="#2CD18A"/>
<path d="M46.0794 47H36.229C35.9849 47 35.7508 46.903 35.5782 46.7304C35.4056 46.5578 35.3086 46.3237 35.3086 46.0796V36.2291C35.3086 35.985 35.4056 35.7509 35.5782 35.5783C35.7508 35.4057 35.9849 35.3087 36.229 35.3087H46.0207C46.1464 35.3007 46.2724 35.3185 46.391 35.3612C46.5095 35.4038 46.618 35.4703 46.7098 35.5566C46.8016 35.6429 46.8747 35.7471 46.9246 35.8628C46.9745 35.9785 47.0001 36.1032 46.9998 36.2291V46.0208C47.0079 46.1465 46.99 46.2726 46.9474 46.3911C46.9048 46.5097 46.8382 46.6182 46.7519 46.71C46.6657 46.8018 46.5615 46.8749 46.4458 46.9247C46.3301 46.9746 46.2054 47.0002 46.0794 47ZM37.2082 45.1591H45.1786V37.2083H37.2082V45.1591Z" fill="#2CD18A"/>
<path d="M28.3957 47H18.604C18.4831 47 18.3635 46.9762 18.2518 46.9299C18.1401 46.8837 18.0386 46.8159 17.9532 46.7304C17.8677 46.6449 17.7999 46.5435 17.7537 46.4318C17.7074 46.3201 17.6836 46.2004 17.6836 46.0796V36.2291C17.6836 36.1083 17.7074 35.9886 17.7537 35.8769C17.7999 35.7652 17.8677 35.6638 17.9532 35.5783C18.0386 35.4928 18.1401 35.425 18.2518 35.3788C18.3635 35.3325 18.4831 35.3087 18.604 35.3087H28.3957C28.5214 35.3007 28.6474 35.3185 28.766 35.3612C28.8845 35.4038 28.993 35.4703 29.0848 35.5566C29.1766 35.6429 29.2497 35.7471 29.2996 35.8628C29.3495 35.9785 29.3751 36.1032 29.3749 36.2291V46.0208C29.3835 46.1516 29.3641 46.2828 29.318 46.4055C29.2718 46.5282 29.2 46.6397 29.1073 46.7324C29.0146 46.8251 28.9031 46.8969 28.7804 46.9431C28.6577 46.9892 28.5265 47.0086 28.3957 47ZM19.5048 45.1591H27.4753V37.2083H19.5146L19.5048 45.1591Z" fill="#2CD18A"/>
</g>
<defs>
<clipPath id="clip0">
<rect width="47" height="47" fill="white"/>
</clipPath>
</defs>
</svg>
