<svg width="19" height="19" viewBox="0 0 19 19" fill="none" xmlns="http://www.w3.org/2000/svg">
<path d="M4.25295 19H0.313839V6.31467H4.25295V19ZM2.28127 4.58428C1.02167 4.58428 0 3.54095 0 2.28132C9.01566e-09 1.67628 0.240348 1.09602 0.668169 0.668184C1.09599 0.240353 1.67624 0 2.28127 0C2.8863 0 3.46655 0.240353 3.89438 0.668184C4.3222 1.09602 4.56254 1.67628 4.56254 2.28132C4.56254 3.54095 3.54045 4.58428 2.28127 4.58428ZM18.9958 19H15.0651V12.8249C15.0651 11.3532 15.0354 9.46586 13.0171 9.46586C10.9691 9.46586 10.6553 11.0648 10.6553 12.7188V19H6.7204V6.31467H10.4983V8.04507H10.5535C11.0794 7.04839 12.364 5.99658 14.2805 5.99658C18.2671 5.99658 19 8.62187 19 12.0318V19H18.9958Z" fill="#2CD18A"/>
</svg>
