<svg width="130" height="130" viewBox="0 0 130 130" fill="none" xmlns="http://www.w3.org/2000/svg">
<path d="M85.0005 76.9594C88.3605 77.8306 88.5525 81.993 88.3605 84.413L91.5285 84.6066C91.9125 78.7986 89.8004 74.9266 85.7684 73.8618C75.4004 71.2482 72.9044 67.957 72.3284 66.6018C73.0964 66.1178 73.7684 65.4402 74.3444 64.7626C79.2404 59.245 78.3765 49.7586 78.2805 48.8874C77.8005 38.0458 69.9285 35.4322 65.3204 35.6258C60.7124 35.4322 52.8405 38.0458 52.3605 48.8874C52.2645 49.7586 51.4964 59.245 56.2964 64.7626C56.9684 65.537 57.8324 66.2146 58.6964 66.7954C57.9284 68.1506 55.1444 71.345 45.3524 73.8618C41.2244 74.9266 39.2084 78.7986 39.5924 84.6066L42.7605 84.413C42.5685 81.993 42.8565 77.8306 46.1205 77.0562C56.8725 74.3458 60.4244 70.5706 61.5764 68.1506C62.6324 68.441 63.8804 68.6346 65.1284 68.6346H65.2244H65.3204H65.4164H65.5124C66.9524 68.6346 68.2004 68.441 69.4484 68.0538C70.6004 70.377 74.0564 74.249 85.0005 76.9594ZM65.4164 65.4402C65.3204 65.4402 65.3204 65.4402 65.4164 65.4402C65.3204 65.4402 65.3204 65.4402 65.3204 65.4402C62.5364 65.4402 60.3284 64.4722 58.6964 62.633C54.6644 58.0834 55.5284 49.2746 55.5284 49.1778V49.081C56.0084 39.5946 62.9204 38.8202 64.9364 38.8202C65.0324 38.8202 65.1284 38.8202 65.2244 38.8202H65.3204C66.8564 38.7234 74.6324 38.917 75.1124 49.081V49.1778C75.1124 49.2746 75.9764 57.9866 71.9444 62.633C70.4084 64.4722 68.2004 65.3434 65.4164 65.4402ZM97.9604 67.957C101.608 63.7946 101.032 56.825 100.936 56.1474C100.552 48.0162 94.6004 45.9834 91.0484 46.0802C87.4964 45.9834 81.5445 47.9194 81.1604 56.1474C81.0644 56.9218 80.4884 63.8914 84.1364 67.957C85.7684 69.893 88.0724 70.861 90.8564 70.861H90.9524H91.0484H91.1444H91.2404C92.2004 70.861 93.0645 70.6674 93.8325 70.4738C94.8885 72.313 97.6724 75.0234 105.256 76.8626C107.368 77.4434 107.464 80.1538 107.368 81.7994L110.536 81.993C110.824 77.5402 109.192 74.5394 106.024 73.6682C99.3044 72.0226 97.2884 69.893 96.7124 68.925C97.0964 68.7314 97.5764 68.3442 97.9604 67.957ZM91.0484 67.6666C89.0324 67.6666 87.5924 67.0858 86.5364 65.8274C83.7524 62.633 84.3284 56.4378 84.3284 56.4378V56.341C84.6164 49.7586 89.3205 49.2746 90.7605 49.2746C90.8565 49.2746 90.9524 49.2746 90.9524 49.2746H91.0484C92.1044 49.2746 97.3844 49.3714 97.6724 56.341V56.4378C97.6724 56.5346 98.2484 62.633 95.4644 65.8274C94.4084 67.0858 92.9684 67.6666 91.0484 67.6666ZM24.4244 73.765C21.2564 74.5394 19.6244 77.637 19.9124 81.993L23.0804 81.7994C22.9844 80.1538 23.0804 77.4434 25.1924 76.8626C32.8724 74.9266 35.6564 72.313 36.6164 70.4738C37.3844 70.6674 38.2484 70.861 39.2084 70.861H39.3044H39.4004H39.4964C42.2804 70.7642 44.5844 69.7962 46.2164 67.957C49.8644 63.7946 49.2884 56.825 49.1924 56.1474C48.8084 47.9194 42.8564 45.9834 39.3044 46.0802C35.7524 45.9834 29.8004 47.9194 29.4164 56.1474C29.3204 56.9218 28.7444 63.8914 32.3924 67.957C32.7764 68.441 33.1604 68.8282 33.6404 69.1186C33.1604 69.9898 31.1444 72.1194 24.4244 73.765ZM32.6804 56.341V56.2442C32.9684 49.6618 37.6724 49.1778 39.1124 49.1778C39.2084 49.1778 39.3044 49.1778 39.3044 49.1778H39.4004C40.4564 49.1778 45.7364 49.2746 46.0244 56.2442V56.341C46.0244 56.4378 46.6004 62.5362 43.8164 65.7306C42.7604 66.989 41.2244 67.5698 39.3044 67.5698C37.3844 67.5698 35.9444 66.989 34.7924 65.7306C32.1044 62.5362 32.6804 56.341 32.6804 56.341Z" fill="white"/>
</svg>
