<svg width="130" height="130" viewBox="0 0 130 130" fill="none" xmlns="http://www.w3.org/2000/svg">
<path d="M105.688 57.125C105.688 51.3356 100.977 46.625 95.1875 46.625C94.2622 46.625 93.3697 46.7576 92.5139 46.9833C92.0152 38.0189 84.5864 30.875 75.5 30.875C71.7672 30.875 68.1684 32.0969 65.2166 34.3295C62.9171 28.4744 57.2234 24.3125 50.5625 24.3125C41.8777 24.3125 34.8125 31.3777 34.8125 40.0625C34.8125 40.5849 34.844 41.1073 34.8952 41.627C28.8708 42.8148 24.3125 48.1331 24.3125 54.5C24.3125 60.5519 28.3524 65.7206 34.1786 67.205C34.6458 67.8928 35.3296 68.4112 36.125 68.6947V75.5C36.125 79.1186 39.0689 82.0625 42.6875 82.0625H48.809C50.0218 85.7677 52.4564 89.0227 55.8125 91.1739V92.5625H53.1875V95.1875H55.8125V97.8125H53.1875V100.438H55.8125V105.688H74.1875V100.438H76.8125V97.8125H74.1875V95.1875H76.8125V92.5625H74.1875V91.1739C77.5422 89.0227 79.9782 85.7664 81.191 82.0625H87.3125C90.9311 82.0625 93.875 79.1186 93.875 75.5V68.696C94.5024 68.4716 95.0536 68.0975 95.4881 67.6106C101.138 67.4478 105.688 62.8134 105.688 57.125ZM36.125 65C36.125 64.2768 36.713 63.6875 37.4375 63.6875C38.162 63.6875 38.75 64.2768 38.75 65C38.75 65.7232 38.162 66.3125 37.4375 66.3125C36.713 66.3125 36.125 65.7232 36.125 65ZM42.6875 79.4375C40.5166 79.4375 38.75 77.6709 38.75 75.5V68.696C39.3721 68.4742 39.9168 68.1067 40.3512 67.625H50.6452C48.9402 70.2802 47.9375 73.4289 47.9375 76.8125C47.9375 77.6998 48.0307 78.5739 48.1672 79.4375H42.6875ZM71.5625 97.8125H68.9375V100.438H71.5625V103.062H58.4375V100.438H66.3125V97.8125H58.4375V95.1875H71.5625V97.8125ZM65 79.4375C63.5523 79.4375 62.375 78.2602 62.375 76.8125C62.375 75.3648 63.5523 74.1875 65 74.1875C66.4477 74.1875 67.625 75.3648 67.625 76.8125C67.625 78.2602 66.4477 79.4375 65 79.4375ZM72.2174 89.3022L71.5625 89.6816V92.5625H66.3125V81.8761C68.5713 81.2894 70.25 79.2511 70.25 76.8125C70.25 73.9171 67.8954 71.5625 65 71.5625C62.1046 71.5625 59.75 73.9171 59.75 76.8125C59.75 79.2511 61.4287 81.2894 63.6875 81.8761V92.5625H58.4375V89.6816L57.7826 89.3022C53.3292 86.7219 50.5625 81.9365 50.5625 76.8125C50.5625 68.8522 57.0397 62.375 65 62.375C72.9603 62.375 79.4375 68.8522 79.4375 76.8125C79.4375 81.9365 76.6708 86.7219 72.2174 89.3022ZM65 51.875C63.5523 51.875 62.375 50.6977 62.375 49.25C62.375 47.8023 63.5523 46.625 65 46.625C66.4477 46.625 67.625 47.8023 67.625 49.25C67.625 50.6977 66.4477 51.875 65 51.875ZM87.3125 79.4375H81.8328C81.9693 78.5739 82.0625 77.6998 82.0625 76.8125C82.0625 73.4289 81.0598 70.2802 79.3548 67.625H89.6488C90.0819 68.1054 90.6279 68.4742 91.25 68.696V75.5C91.25 77.6709 89.4834 79.4375 87.3125 79.4375ZM92.5625 66.3125C91.838 66.3125 91.25 65.7232 91.25 65C91.25 64.2768 91.838 63.6875 92.5625 63.6875C93.287 63.6875 93.875 64.2768 93.875 65C93.875 65.7232 93.287 66.3125 92.5625 66.3125ZM96.4882 64.8832C96.4252 62.7674 94.694 61.0625 92.5625 61.0625C90.3916 61.0625 88.625 62.8291 88.625 65H77.2837C74.4631 62.0679 70.6096 60.1464 66.3125 59.8169V54.3136C68.5713 53.7269 70.25 51.6886 70.25 49.25C70.25 46.3546 67.8954 44 65 44C62.1046 44 59.75 46.3546 59.75 49.25C59.75 51.6886 61.4287 53.7269 63.6875 54.3136V59.8169C59.3891 60.1464 55.5369 62.0679 52.7163 65H41.375C41.375 62.8291 39.6084 61.0625 37.4375 61.0625C35.5186 61.0625 33.9213 62.4432 33.5748 64.2637C29.6006 62.7071 26.9375 58.8956 26.9375 54.5C26.9375 48.7106 31.6481 44 37.4375 44C43.2269 44 47.9375 48.7106 47.9375 54.5H50.5625C50.5625 47.2865 44.7114 41.417 37.5071 41.3789C37.4638 40.9419 37.4375 40.5022 37.4375 40.0625C37.4375 32.8254 43.3254 26.9375 50.5625 26.9375C57.7996 26.9375 63.6875 32.8254 63.6875 40.0625H66.3125C66.3125 39.0348 66.2062 38.0334 66.0172 37.0595C68.6461 34.7666 72.0035 33.5 75.5 33.5C83.4603 33.5 89.9375 39.9772 89.9375 47.9375C89.9375 47.9742 89.9336 48.011 89.9336 48.0491C86.8019 49.8682 84.6875 53.2505 84.6875 57.125H87.3125C87.3125 52.7819 90.8444 49.25 95.1875 49.25C99.5306 49.25 103.062 52.7819 103.062 57.125C103.062 61.0231 100.213 64.2597 96.4882 64.8832Z" fill="white"/>
</svg>
