<svg id="Calque_1" data-name="Calque 1" xmlns="http://www.w3.org/2000/svg" viewBox="0 0 219 192"><defs><style>.cls-1{fill:#fff;}</style></defs><title>LOGO_BLANC_DATEXIS</title><path class="cls-1" d="M109.5,11.34a58.93,58.93,0,1,0,58.93,58.92A58.93,58.93,0,0,0,109.5,11.34Zm0,18.57a3.83,3.83,0,1,1-3.83,3.83A3.84,3.84,0,0,1,109.5,29.91Zm1.93,23.61a2.74,2.74,0,1,1,0-3.87A2.73,2.73,0,0,1,111.43,53.52Zm-30.89,14h0a2.75,2.75,0,0,1,0,3.87c-1.43,1.42-2.52,9.9.77,13.19a3.83,3.83,0,1,1-5.42,0h0c3.29-3.29,2.2-11.77.77-13.19a2.75,2.75,0,0,1,0-3.87h0c1.43-1.43,2.52-9.91-.77-13.2a3.82,3.82,0,0,1,3.7-6.4h0c4.5,1.21,11.3-4,11.82-5.92h0a2.74,2.74,0,1,1,2.64,3.44,2.39,2.39,0,0,1-.71-.1h0c-1.94-.52-9.83,2.77-11,7.27h0a3.85,3.85,0,0,1-1,1.72h0C78,57.59,79.11,66.06,80.54,67.49Zm10.8-4.28a3.83,3.83,0,1,1,5.42,0c-3,3-2.46,10,0,12.42a3.83,3.83,0,1,1-5.42,0h0C93.8,73.17,94.35,66.22,91.34,63.21ZM94.05,100a3.83,3.83,0,1,1,3.83-3.83A3.82,3.82,0,0,1,94.05,100Zm15.45,10.6a5.51,5.51,0,0,1-3.66-9.63c2.61-2.87,4.3-9.18,1.72-11.75a2.79,2.79,0,0,1-.8-2,2.71,2.71,0,0,1,.8-2h0c2.66-2.66.78-9.27-2-12a5.51,5.51,0,1,1,7.8,0c-2.75,2.74-4.62,9.35-2,12a2.72,2.72,0,0,1,.81,1.94,2.76,2.76,0,0,1-.81,2h0c-2.57,2.57-.88,8.88,1.73,11.75a5.51,5.51,0,0,1-3.66,9.63ZM123,44.6a2.74,2.74,0,1,1,3.87,0c-1.42,1.42-2.51,9.9.78,13.19a3.83,3.83,0,1,1-5.42,0h0C125.53,54.5,124.44,46,123,44.6Zm4.68,33.74A2.74,2.74,0,1,1,125,75.61,2.74,2.74,0,0,1,127.69,78.34Zm16.41,9.91A3.83,3.83,0,0,1,139.41,91h0c-3.36-.89-9.65,2.1-10.75,6.21a3.83,3.83,0,1,1-2.71-4.69c4.11,1.1,9.86-2.85,10.76-6.21a3.83,3.83,0,0,1,7.4,2Zm-1-34c-3.29,3.29-2.2,11.77-.78,13.2a2.74,2.74,0,1,1-3.87,0c1.43-1.43,2.52-9.91-.77-13.2a3.83,3.83,0,1,1,5.42,0Z"/><path class="cls-1" d="M13.83,180.66a.36.36,0,0,1-.39-.39V154.6a.37.37,0,0,1,.39-.39h9.76c6.11.51,10.7,6.46,10.07,13.23.63,6.77-4,12.72-10.07,13.22H13.83Zm.39-.78h9.33c5.68-.5,9.88-6.06,9.34-12.4v-.08c.54-6.34-3.66-11.9-9.34-12.41H14.22Z"/><path class="cls-1" d="M45.29,180.43l-.08.23h-.85l.23-.54,11.28-25.67a.4.4,0,0,1,.7,0l11.28,25.67.23.54h-.85l-.08-.23L56.22,155.58Z"/><path class="cls-1" d="M87.76,154.21h9.68V155H87.76v25.67H87V155H77.22v-.78H87.76Z"/><path class="cls-1" d="M128.17,154.21h.39V155H110.67v12.06h13.1v.78h-13.1v12h17.89v.78H110.28a.36.36,0,0,1-.39-.39V154.6a.37.37,0,0,1,.39-.39Z"/><path class="cls-1" d="M149.56,166.24l8.63-11.87.12-.16h1l-.47.63L150,166.9,159.59,180l.47.62h-1l-.12-.15-9.41-12.94-9.42,12.94-.11.15h-1l.46-.62,9.56-13.14-8.78-12.06-.47-.63h1l.11.16Z"/><path class="cls-1" d="M172.54,154.6v-.39h.78v26.45h-.78V154.6Z"/><path class="cls-1" d="M204.74,161v.39H204V161c0-3.38-3.5-6-7.74-6s-7.74,2.65-7.74,6c0,6,17.11,6,17.07,12.84,0,3.61-4.16,6.8-9.33,6.8s-9.34-3.15-9.34-6.8v-.39h.78v.39c0,3.34,3.89,6,8.56,6s8.55-2.72,8.55-6c0-6.11-17-6-17.07-12.84,0-3.69,3.73-6.81,8.52-6.81S204.74,157.33,204.74,161Z"/></svg>